<svg width="136" height="136" viewBox="0 0 136 136" fill="none" xmlns="http://www.w3.org/2000/svg">
<path d="M10 34.5L68 1L126 34.5V101.5L68 135L10 101.5L10 34.5Z" fill="url(#paint0_linear_0_96)"/>
<rect opacity="0.01" x="40" y="28" width="56" height="56" fill="white"/>
<path d="M51.0234 74.2289C49.9344 75.316 49.9362 77.0846 51.0288 78.1788C52.123 79.2714 53.8917 79.2731 54.9805 78.1844L63.6829 69.4822L59.7255 65.525L51.0234 74.2289Z" fill="white"/>
<path d="M94.2807 41.3726L86.4311 49.2493L85.1201 47.9338L92.7092 39.7941L91.9738 39.0562L83.807 46.6162L82.494 45.3004L90.1175 37.1951L89.3244 36.3976L81.1828 43.9829L79.8698 42.6651L87.7191 34.7883L86.9351 34C86.9351 34 79.5451 39.8138 75.8966 42.8145C74.6176 43.8638 74.103 45.6404 74.2822 47.2911C74.528 49.523 74.7987 50.3888 73.895 51.2959L66.239 58.9764C56.4183 49.1179 45.6683 38.329 44.5616 37.2345C43.9106 36.5901 42.9776 36.5901 42.3931 37.177C40.3556 39.2217 46.5077 51.4365 54.612 61.6746C56.3017 59.97 57.839 58.4364 57.839 58.4364L77.5219 78.1858C78.7396 79.4082 80.5119 79.1255 81.4466 78.1858H81.4483C82.5317 77.0988 82.5317 75.333 81.4483 74.2457C79.3655 72.156 75.0964 67.8683 70.1764 62.9273L77.8245 55.2522C78.7432 54.3307 79.5915 54.6134 81.8161 54.8742C83.4858 55.0705 85.3137 54.5666 86.3668 53.2544C89.3334 49.5481 95.0001 42.0928 95.0001 42.0928L94.2807 41.3726Z" fill="white"/>
<defs>
<linearGradient id="paint0_linear_0_96" x1="35.9565" y1="166.202" x2="157.019" y2="119.302" gradientUnits="userSpaceOnUse">
<stop stop-color="#FFCC21"/>
<stop offset="1" stop-color="#FF963C"/>
</linearGradient>
</defs>
</svg>
