<svg width="136" height="136" viewBox="0 0 136 136" fill="none" xmlns="http://www.w3.org/2000/svg">
<g clip-path="url(#clip0_0_98)">
<path d="M10 34.5L68 1L126 34.5V101.5L68 135L10 101.5L10 34.5Z" fill="url(#paint0_linear_0_98)"/>
<rect opacity="0.01" x="40" y="32" width="56" height="56" fill="white"/>
<g clip-path="url(#clip1_0_98)">
<path fill-rule="evenodd" clip-rule="evenodd" d="M85 44.0464C82.7853 44.0464 80.9036 42.3071 80.9036 40H55.1486C55.1486 42.304 53.2163 44.0464 51 44.0464V46.6671H85V44.0464ZM52.7004 49.9999L57.9067 80H78.2008L83.3013 49.9999H52.7004ZM79.2861 53.3264L78.1519 60H57.954L56.8198 53.3264H79.2861ZM60.7872 76.6672L59.6532 70.0001H76.4528L75.3203 76.6672H60.7872Z" fill="white"/>
</g>
</g>
<defs>
<linearGradient id="paint0_linear_0_98" x1="35.9565" y1="166.202" x2="157.019" y2="119.302" gradientUnits="userSpaceOnUse">
<stop stop-color="#FFCC21"/>
<stop offset="1" stop-color="#FF963C"/>
</linearGradient>
<clipPath id="clip0_0_98">
<rect width="136" height="136" fill="white"/>
</clipPath>
<clipPath id="clip1_0_98">
<rect width="34" height="40" fill="white" transform="translate(51 40)"/>
</clipPath>
</defs>
</svg>
